<?xml version="1.0" encoding="utf-8"?>
<!-- Generator: Adobe Illustrator 15.0.2, SVG Export Plug-In . SVG Version: 6.00 Build 0)  -->
<!DOCTYPE svg PUBLIC "-//W3C//DTD SVG 1.1//EN" "http://www.w3.org/Graphics/SVG/1.1/DTD/svg11.dtd">
<svg version="1.1" xmlns="http://www.w3.org/2000/svg" xmlns:xlink="http://www.w3.org/1999/xlink" x="0px" y="0px"
	 width="190px" height="200px" viewBox="156.24 71.28 479.52 469.439" enable-background="new 156.24 71.28 479.52 469.439"
	 xml:space="preserve">
<g id="Layer_2">

		<rect x="166.531" y="81.5" fill="#33A9DC" stroke="#E44F26" stroke-width="20.5123" stroke-miterlimit="10" width="459.032" height="449.334"/>
</g>
<g id="Layer_1">
	<g>
		<polygon fill="#E44F26" points="205.035,395.571 188.98,215.497 365.394,215.497 349.323,395.541 277.079,415.57 		"/>
		<polygon fill="#F1662A" points="277.187,400.262 335.563,384.078 349.298,230.221 277.187,230.221 		"/>
		<polygon fill="#EBEBEB" points="277.187,297.008 247.963,297.008 245.944,274.393 277.187,274.393 277.187,252.306
			277.111,252.306 221.808,252.306 222.336,258.231 227.764,319.092 277.187,319.092 		"/>
		<polygon fill="#EBEBEB" points="277.187,354.364 277.09,354.392 252.494,347.749 250.921,330.136 238.97,330.136 228.751,330.136
			231.846,364.813 277.085,377.372 277.187,377.343 		"/>
		<path fill="#010101" d="M205.394,166.561h11.224v11.089h10.268v-11.089h11.224v33.58h-11.223v-11.244h-10.267v11.244h-11.225
			V166.561L205.394,166.561z"/>
		<path fill="#010101" d="M252.867,177.696h-9.881v-11.136h30.99v11.136h-9.885v22.444h-11.224L252.867,177.696L252.867,177.696z"/>
		<path fill="#010101" d="M278.895,166.561h11.703l7.199,11.799l7.192-11.799h11.707v33.58h-11.177v-16.643l-7.723,11.938h-0.193
			l-7.727-11.938v16.643h-10.982L278.895,166.561L278.895,166.561z"/>
		<path fill="#010101" d="M322.281,166.561h11.227v22.48h15.784v11.099h-27.011L322.281,166.561L322.281,166.561z"/>
		<polygon fill="#FFFFFF" points="277.111,297.008 277.111,319.092 304.306,319.092 301.743,347.734 277.111,354.384
			277.111,377.361 322.387,364.813 322.719,361.082 327.909,302.938 328.447,297.008 322.496,297.008 		"/>
		<polygon fill="#FFFFFF" points="277.111,252.306 277.111,266.023 277.111,274.338 277.111,274.393 330.386,274.393
			330.386,274.393 330.458,274.393 330.9,269.428 331.906,258.231 332.435,252.306 		"/>
	</g>
	<g>
		<path fill="#131313" d="M566.689,175.781h-14.643l15.228,16.522v7.865H535.91v-9.208h15.225l-15.225-16.524v-7.876h30.779V175.781
			L566.689,175.781z M529.693,175.781h-14.643l15.228,16.522v7.865h-31.364v-9.208h15.226l-15.226-16.524v-7.876h30.779V175.781
			L529.693,175.781z M493.06,176.156h-15.8v14.419h15.8v9.594H466.03v-33.608h27.029V176.156z"/>
	</g>
	<polygon fill="#1572B6" points="444.556,395.585 428.497,215.512 604.947,215.512 588.874,395.557 516.614,415.585 	"/>
	<polygon fill="#33A9DC" points="516.652,400.276 575.028,384.092 588.763,230.235 516.652,230.235 	"/>
	<g>
		<polygon fill="#FFFFFF" points="516.652,295.476 545.877,295.476 547.895,272.86 516.652,272.86 516.652,250.774 516.729,250.774
			572.032,250.774 571.502,256.699 566.074,317.56 516.652,317.56 		"/>
		<polygon fill="#EBEBEB" points="516.784,352.832 516.688,352.859 492.091,346.217 490.519,328.604 478.566,328.604
			468.349,328.604 471.442,363.28 516.683,375.839 516.784,375.811 		"/>
		<polygon fill="#FFFFFF" points="544,316.625 541.341,346.202 516.707,352.852 516.707,375.828 561.983,363.28 562.316,359.55
			566.157,316.625 		"/>
		<polygon fill="#EBEBEB" points="516.729,250.774 516.729,264.491 516.729,272.805 516.729,272.86 463.452,272.86 463.452,272.86
			463.382,272.86 462.939,267.896 461.933,256.699 461.404,250.774 		"/>
		<polygon fill="#EBEBEB" points="516.652,295.478 516.652,309.195 516.652,317.51 516.652,317.563 492.438,317.563
			492.438,317.563 492.367,317.563 491.925,312.6 490.918,301.403 490.389,295.478 		"/>
	</g>
</g>
</svg>
